<?xml version="1.0" encoding="UTF-8"?>
<!DOCTYPE svg PUBLIC "-//W3C//DTD SVG 1.1//EN" "http://www.w3.org/Graphics/SVG/1.1/DTD/svg11.dtd">
<svg xmlns="http://www.w3.org/2000/svg" version="1.1" width="512px" height="512px" style="shape-rendering:geometricPrecision; text-rendering:geometricPrecision; image-rendering:optimizeQuality; fill-rule:evenodd; clip-rule:evenodd" xmlns:xlink="http://www.w3.org/1999/xlink">
<g><path style="opacity:0.991" fill="#b1fe59" d="M 325.5,37.5 C 327.156,43.3638 327.823,49.3638 327.5,55.5C 324.966,66.9855 317.633,73.1521 305.5,74C 295.5,74.6667 285.5,74.6667 275.5,74C 262.763,72.431 256.096,65.2643 255.5,52.5C 249.167,52.5 242.833,52.5 236.5,52.5C 238.598,61.492 235.265,66.992 226.5,69C 216.5,69.6667 206.5,69.6667 196.5,69C 190.506,66.5505 187.506,62.0505 187.5,55.5C 185.5,55.5 183.5,55.5 181.5,55.5C 183.607,54.5318 185.941,54.1984 188.5,54.5C 190.136,46.2177 194.469,39.8843 201.5,35.5C 208.037,33.2719 214.703,32.9386 221.5,34.5C 224.765,36.5841 227.932,38.9174 231,41.5C 233.324,44.4799 234.824,47.8133 235.5,51.5C 242.167,51.5 248.833,51.5 255.5,51.5C 255.194,45.4236 256.528,39.7569 259.5,34.5C 266.394,22.0446 277.061,15.7112 291.5,15.5C 307.314,15.9924 318.648,23.3258 325.5,37.5 Z"/></g>
<g><path style="opacity:0.985" fill="#90a4ad" d="M 221.5,34.5 C 234.167,34.5 246.833,34.5 259.5,34.5C 256.528,39.7569 255.194,45.4236 255.5,51.5C 248.833,51.5 242.167,51.5 235.5,51.5C 234.824,47.8133 233.324,44.4799 231,41.5C 227.932,38.9174 224.765,36.5841 221.5,34.5 Z"/></g>
<g><path style="opacity:0.994" fill="#8fa3ac" d="M 201.5,35.5 C 194.469,39.8843 190.136,46.2177 188.5,54.5C 185.941,54.1984 183.607,54.5318 181.5,55.5C 150.865,57.9003 120.531,62.4003 90.5,69C 144.785,81.2234 199.785,87.0568 255.5,86.5C 310.838,86.8083 365.504,80.975 419.5,69C 389.143,62.3062 358.476,57.8062 327.5,55.5C 327.823,49.3638 327.156,43.3638 325.5,37.5C 371.016,40.6968 415.682,48.5301 459.5,61C 463.522,65.1926 464.189,69.6926 461.5,74.5C 460.36,75.8014 459.027,76.9681 457.5,78C 350.704,105.383 242.704,111.05 133.5,95C 107.232,90.9464 81.232,85.6131 55.5,79C 53.2528,77.7225 51.2528,76.2225 49.5,74.5C 46.4297,67.5604 48.4297,62.3938 55.5,59C 103.508,46.943 152.175,39.1097 201.5,35.5 Z"/></g>
<g><path style="opacity:1" fill="#76fd0c" d="M 327.5,55.5 C 358.476,57.8062 389.143,62.3062 419.5,69C 365.504,80.975 310.838,86.8083 255.5,86.5C 199.785,87.0568 144.785,81.2234 90.5,69C 120.531,62.4003 150.865,57.9003 181.5,55.5C 183.5,55.5 185.5,55.5 187.5,55.5C 187.506,62.0505 190.506,66.5505 196.5,69C 206.5,69.6667 216.5,69.6667 226.5,69C 235.265,66.992 238.598,61.492 236.5,52.5C 242.833,52.5 249.167,52.5 255.5,52.5C 256.096,65.2643 262.763,72.431 275.5,74C 285.5,74.6667 295.5,74.6667 305.5,74C 317.633,73.1521 324.966,66.9855 327.5,55.5 Z"/></g>
<g><path style="opacity:0.999" fill="#37474f" d="M 49.5,74.5 C 51.2528,76.2225 53.2528,77.7225 55.5,79C 81.232,85.6131 107.232,90.9464 133.5,95C 242.704,111.05 350.704,105.383 457.5,78C 459.027,76.9681 460.36,75.8014 461.5,74.5C 459.093,83.055 456.093,91.3884 452.5,99.5C 445.872,98.231 441.039,100.564 438,106.5C 430.889,117.273 428.722,128.94 431.5,141.5C 330.295,166.891 228.295,170.391 125.5,152C 110.075,148.81 94.7413,145.31 79.5,141.5C 82.879,125.142 78.5457,111.309 66.5,100C 63.854,99.5026 61.1873,99.3359 58.5,99.5C 54.907,91.3884 51.907,83.055 49.5,74.5 Z"/></g>
<g><path style="opacity:0.982" fill="#536d79" d="M 58.5,99.5 C 61.1873,99.3359 63.854,99.5026 66.5,100C 78.5457,111.309 82.879,125.142 79.5,141.5C 78.8333,141.833 78.1667,142.167 77.5,142.5C 76.3859,139.551 74.3859,137.385 71.5,136C 49.3411,132.931 37.0078,142.597 34.5,165C 34.2265,173.187 36.8932,180.187 42.5,186C 48.718,188.702 53.3846,187.202 56.5,181.5C 57.6633,199.674 54.6633,217.174 47.5,234C 46.552,234.483 45.552,234.649 44.5,234.5C 39.4692,234.299 35.1358,232.466 31.5,229C 14.293,215.407 3.62628,197.907 -0.5,176.5C -0.5,168.5 -0.5,160.5 -0.5,152.5C 4.91712,129.243 18.5838,112.743 40.5,103C 46.3264,100.876 52.3264,99.7094 58.5,99.5 Z"/></g>
<g><path style="opacity:0.982" fill="#546d79" d="M 452.5,99.5 C 484.416,103.612 504.083,121.278 511.5,152.5C 511.5,160.5 511.5,168.5 511.5,176.5C 507.048,200.798 494.381,219.631 473.5,233C 471.26,233.977 468.927,234.477 466.5,234.5C 463.405,234.374 461.572,232.707 461,229.5C 456.765,216.005 454.265,202.172 453.5,188C 453.569,186.014 454.235,184.514 455.5,183.5C 463.498,189.566 469.664,187.899 474,178.5C 479.113,164.124 476.28,151.624 465.5,141C 457.671,134.875 449.004,133.208 439.5,136C 436.977,137.36 434.977,139.193 433.5,141.5C 432.833,141.5 432.167,141.5 431.5,141.5C 428.722,128.94 430.889,117.273 438,106.5C 441.039,100.564 445.872,98.231 452.5,99.5 Z"/></g>
<g><path style="opacity:0.999" fill="#445963" d="M 79.5,141.5 C 94.7413,145.31 110.075,148.81 125.5,152C 228.295,170.391 330.295,166.891 431.5,141.5C 432.167,141.5 432.833,141.5 433.5,141.5C 441.868,154.901 449.201,168.901 455.5,183.5C 454.235,184.514 453.569,186.014 453.5,188C 454.265,202.172 456.765,216.005 461,229.5C 461.572,232.707 463.405,234.374 466.5,234.5C 468.683,267.411 461.85,298.411 446,327.5C 434.074,349.161 418.907,368.328 400.5,385C 393.555,390.449 386.222,395.282 378.5,399.5C 357.734,409.424 336.067,416.091 313.5,419.5C 303.201,420.83 292.868,421.83 282.5,422.5C 264.167,422.5 245.833,422.5 227.5,422.5C 217.471,421.764 207.471,420.764 197.5,419.5C 174.828,416.41 153.162,409.744 132.5,399.5C 111.693,387.196 94.1928,371.196 80,351.5C 58.728,322.692 46.728,290.359 44,254.5C 43.2075,247.753 43.3742,241.086 44.5,234.5C 45.552,234.649 46.552,234.483 47.5,234C 54.6633,217.174 57.6633,199.674 56.5,181.5C 62.2012,167.762 69.2012,154.762 77.5,142.5C 78.1667,142.167 78.8333,141.833 79.5,141.5 Z"/></g>
<g><path style="opacity:0.984" fill="#37474f" d="M 132.5,399.5 C 153.162,409.744 174.828,416.41 197.5,419.5C 183.941,442.943 170.108,466.276 156,489.5C 146.676,496.973 136.843,497.473 126.5,491C 121.734,487.134 119.067,482.134 118.5,476C 123.329,450.523 127.996,425.023 132.5,399.5 Z"/></g>
<g><path style="opacity:0.983" fill="#36464e" d="M 378.5,399.5 C 383.1,425 387.766,450.5 392.5,476C 390.977,486.524 384.977,492.857 374.5,495C 366.903,496.892 360.403,495.059 355,489.5C 340.892,466.276 327.059,442.943 313.5,419.5C 336.067,416.091 357.734,409.424 378.5,399.5 Z"/></g>
<g><path style="opacity:0.992" fill="#263238" d="M 227.5,422.5 C 245.833,422.5 264.167,422.5 282.5,422.5C 279.688,434.728 277.188,447.061 275,459.5C 272.319,470.515 265.319,475.849 254,475.5C 243.642,475.996 236.976,471.329 234,461.5C 231.831,448.487 229.664,435.487 227.5,422.5 Z"/></g>
</svg>
